<svg xmlns="http://www.w3.org/2000/svg" xmlns:xlink="http://www.w3.org/1999/xlink" width="500" zoomAndPan="magnify" viewBox="0 0 375 374.999991" height="500" preserveAspectRatio="xMidYMid meet" version="1.0"><defs><g/><clipPath id="8787fca543"><rect x="0" width="62" y="0" height="15"/></clipPath></defs><g transform="matrix(1, 0, 0, 1, 158, 210)"><g clip-path="url(#8787fca543)"><g fill="#32180b" fill-opacity="1"><g transform="translate(0.887062, 12.197375)"><g><path d="M 4.125 -8.046875 C 4.800781 -8.046875 5.34375 -7.835938 5.75 -7.421875 C 6.15625 -7.003906 6.359375 -6.460938 6.359375 -5.796875 C 6.359375 -5.128906 6.148438 -4.59375 5.734375 -4.1875 C 5.316406 -3.78125 4.769531 -3.578125 4.09375 -3.578125 L 1.875 -3.578125 C 1.832031 -3.578125 1.8125 -3.554688 1.8125 -3.515625 L 1.8125 -0.15625 C 1.8125 -0.0507812 1.757812 0 1.65625 0 L 1.140625 0 C 1.046875 0 1 -0.0507812 1 -0.15625 L 1 -7.890625 C 1 -7.992188 1.046875 -8.046875 1.140625 -8.046875 Z M 4.03125 -4.25 C 4.488281 -4.25 4.859375 -4.390625 5.140625 -4.671875 C 5.421875 -4.953125 5.5625 -5.320312 5.5625 -5.78125 C 5.5625 -6.25 5.421875 -6.625 5.140625 -6.90625 C 4.859375 -7.1875 4.488281 -7.328125 4.03125 -7.328125 L 1.875 -7.328125 C 1.832031 -7.328125 1.8125 -7.304688 1.8125 -7.265625 L 1.8125 -4.3125 C 1.8125 -4.269531 1.832031 -4.25 1.875 -4.25 Z M 4.03125 -4.25 "/></g></g></g><g fill="#32180b" fill-opacity="1"><g transform="translate(9.974777, 12.197375)"><g><path d="M 1.234375 0 C 1.128906 0 1.078125 -0.0507812 1.078125 -0.15625 L 1.078125 -7.875 C 1.078125 -7.976562 1.128906 -8.03125 1.234375 -8.03125 L 1.75 -8.03125 C 1.84375 -8.03125 1.890625 -7.976562 1.890625 -7.875 L 1.890625 -0.15625 C 1.890625 -0.0507812 1.84375 0 1.75 0 Z M 1.234375 0 "/></g></g></g><g fill="#32180b" fill-opacity="1"><g transform="translate(15.242203, 12.197375)"><g><path d="M 1.234375 0 C 1.128906 0 1.078125 -0.0507812 1.078125 -0.15625 L 1.078125 -7.875 C 1.078125 -7.976562 1.128906 -8.03125 1.234375 -8.03125 L 1.75 -8.03125 C 1.84375 -8.03125 1.890625 -7.976562 1.890625 -7.875 L 1.890625 -0.765625 C 1.890625 -0.734375 1.910156 -0.71875 1.953125 -0.71875 L 5.953125 -0.71875 C 6.046875 -0.71875 6.09375 -0.664062 6.09375 -0.5625 L 6.09375 -0.15625 C 6.09375 -0.0507812 6.046875 0 5.953125 0 Z M 1.234375 0 "/></g></g></g><g fill="#32180b" fill-opacity="1"><g transform="translate(24.054584, 12.197375)"><g><path d="M 5.859375 0 C 5.773438 0 5.722656 -0.0390625 5.703125 -0.125 L 5.234375 -1.53125 C 5.222656 -1.5625 5.207031 -1.578125 5.1875 -1.578125 L 1.765625 -1.578125 C 1.742188 -1.578125 1.722656 -1.5625 1.703125 -1.53125 L 1.265625 -0.125 C 1.242188 -0.0390625 1.1875 0 1.09375 0 L 0.546875 0 C 0.492188 0 0.457031 -0.015625 0.4375 -0.046875 C 0.414062 -0.078125 0.410156 -0.117188 0.421875 -0.171875 L 2.953125 -7.90625 C 2.972656 -7.988281 3.023438 -8.03125 3.109375 -8.03125 L 3.84375 -8.03125 C 3.925781 -8.03125 3.976562 -7.988281 4 -7.90625 L 6.53125 -0.171875 C 6.539062 -0.160156 6.546875 -0.140625 6.546875 -0.109375 C 6.546875 -0.078125 6.53125 -0.0507812 6.5 -0.03125 C 6.476562 -0.0078125 6.445312 0 6.40625 0 Z M 1.96875 -2.3125 C 1.957031 -2.257812 1.96875 -2.234375 2 -2.234375 L 4.953125 -2.234375 C 4.992188 -2.234375 5.007812 -2.257812 5 -2.3125 L 3.515625 -7 C 3.503906 -7.03125 3.488281 -7.046875 3.46875 -7.046875 C 3.457031 -7.046875 3.445312 -7.03125 3.4375 -7 Z M 1.96875 -2.3125 "/></g></g></g><g fill="#32180b" fill-opacity="1"><g transform="translate(33.314384, 12.197375)"><g><path d="M 5.890625 -8.03125 C 5.984375 -8.03125 6.03125 -7.976562 6.03125 -7.875 L 6.03125 -7.453125 C 6.03125 -7.359375 5.984375 -7.3125 5.890625 -7.3125 L 3.6875 -7.3125 C 3.644531 -7.3125 3.625 -7.289062 3.625 -7.25 L 3.625 -0.15625 C 3.625 -0.0507812 3.570312 0 3.46875 0 L 2.953125 0 C 2.859375 0 2.8125 -0.0507812 2.8125 -0.15625 L 2.8125 -7.25 C 2.8125 -7.289062 2.789062 -7.3125 2.75 -7.3125 L 0.640625 -7.3125 C 0.546875 -7.3125 0.5 -7.359375 0.5 -7.453125 L 0.5 -7.875 C 0.5 -7.976562 0.546875 -8.03125 0.640625 -8.03125 Z M 5.890625 -8.03125 "/></g></g></g><g fill="#32180b" fill-opacity="1"><g transform="translate(42.138228, 12.197375)"><g><path d="M 6.265625 -7.46875 C 6.265625 -7.363281 6.21875 -7.3125 6.125 -7.3125 L 1.953125 -7.3125 C 1.910156 -7.3125 1.890625 -7.296875 1.890625 -7.265625 L 1.890625 -4.453125 C 1.890625 -4.410156 1.910156 -4.390625 1.953125 -4.390625 L 4.859375 -4.390625 C 4.960938 -4.390625 5.015625 -4.34375 5.015625 -4.25 L 5.015625 -3.828125 C 5.015625 -3.734375 4.960938 -3.6875 4.859375 -3.6875 L 1.953125 -3.6875 C 1.910156 -3.6875 1.890625 -3.664062 1.890625 -3.625 L 1.890625 -0.765625 C 1.890625 -0.734375 1.910156 -0.71875 1.953125 -0.71875 L 6.125 -0.71875 C 6.21875 -0.71875 6.265625 -0.664062 6.265625 -0.5625 L 6.265625 -0.15625 C 6.265625 -0.0507812 6.21875 0 6.125 0 L 1.234375 0 C 1.128906 0 1.078125 -0.0507812 1.078125 -0.15625 L 1.078125 -7.875 C 1.078125 -7.976562 1.128906 -8.03125 1.234375 -8.03125 L 6.125 -8.03125 C 6.21875 -8.03125 6.265625 -7.976562 6.265625 -7.875 Z M 6.265625 -7.46875 "/></g></g></g><g fill="#32180b" fill-opacity="1"><g transform="translate(51.375079, 12.197375)"><g><path d="M 3.421875 0.09375 C 2.859375 0.09375 2.367188 0.00390625 1.953125 -0.171875 C 1.535156 -0.347656 1.210938 -0.597656 0.984375 -0.921875 C 0.765625 -1.242188 0.65625 -1.617188 0.65625 -2.046875 L 0.65625 -2.375 C 0.65625 -2.46875 0.703125 -2.515625 0.796875 -2.515625 L 1.296875 -2.515625 C 1.390625 -2.515625 1.4375 -2.46875 1.4375 -2.375 L 1.4375 -2.09375 C 1.4375 -1.65625 1.617188 -1.300781 1.984375 -1.03125 C 2.359375 -0.757812 2.851562 -0.625 3.46875 -0.625 C 4.0625 -0.625 4.507812 -0.742188 4.8125 -0.984375 C 5.125 -1.234375 5.28125 -1.566406 5.28125 -1.984375 C 5.28125 -2.253906 5.207031 -2.484375 5.0625 -2.671875 C 4.914062 -2.859375 4.695312 -3.035156 4.40625 -3.203125 C 4.125 -3.378906 3.710938 -3.578125 3.171875 -3.796875 C 2.597656 -4.023438 2.148438 -4.222656 1.828125 -4.390625 C 1.515625 -4.566406 1.257812 -4.789062 1.0625 -5.0625 C 0.863281 -5.332031 0.765625 -5.675781 0.765625 -6.09375 C 0.765625 -6.726562 0.988281 -7.222656 1.4375 -7.578125 C 1.882812 -7.941406 2.503906 -8.125 3.296875 -8.125 C 4.128906 -8.125 4.789062 -7.921875 5.28125 -7.515625 C 5.769531 -7.117188 6.015625 -6.59375 6.015625 -5.9375 L 6.015625 -5.71875 C 6.015625 -5.625 5.96875 -5.578125 5.875 -5.578125 L 5.375 -5.578125 C 5.269531 -5.578125 5.21875 -5.625 5.21875 -5.71875 L 5.21875 -5.890625 C 5.21875 -6.335938 5.046875 -6.703125 4.703125 -6.984375 C 4.359375 -7.265625 3.875 -7.40625 3.25 -7.40625 C 2.707031 -7.40625 2.289062 -7.296875 2 -7.078125 C 1.71875 -6.859375 1.578125 -6.535156 1.578125 -6.109375 C 1.578125 -5.835938 1.644531 -5.609375 1.78125 -5.421875 C 1.925781 -5.242188 2.128906 -5.085938 2.390625 -4.953125 C 2.648438 -4.828125 3.050781 -4.65625 3.59375 -4.4375 C 4.15625 -4.207031 4.609375 -3.992188 4.953125 -3.796875 C 5.296875 -3.597656 5.570312 -3.351562 5.78125 -3.0625 C 5.988281 -2.78125 6.09375 -2.429688 6.09375 -2.015625 C 6.09375 -1.378906 5.851562 -0.867188 5.375 -0.484375 C 4.90625 -0.0976562 4.253906 0.09375 3.421875 0.09375 Z M 3.421875 0.09375 "/></g></g></g></g></g><path stroke-linecap="butt" transform="matrix(0.75, 0, 0, 0.75, 199.072991, 150.716167)" fill="none" stroke-linejoin="miter" d="M 0.0016375 0.998236 L 28.131848 0.998236 " stroke="#32180b" stroke-width="2" stroke-opacity="1" stroke-miterlimit="4"/><g fill="#32180b" fill-opacity="1"><g transform="translate(77.262993, 193.216173)"><g><path d="M 16.796875 -7.046875 C 16.796875 -4.410156 17.0625 -2.644531 17.59375 -1.75 C 18.132812 -0.851562 18.9375 -0.421875 20 -0.453125 L 20 0 L 8.84375 0 L 8.84375 -0.453125 C 9.914062 -0.421875 10.71875 -0.851562 11.25 -1.75 C 11.78125 -2.644531 12.046875 -4.410156 12.046875 -7.046875 L 12.046875 -33.296875 L 10.75 -33.296875 C 9.414062 -33.296875 8.046875 -33.007812 6.640625 -32.4375 C 5.242188 -31.875 3.988281 -31.09375 2.875 -30.09375 C 1.757812 -29.09375 0.953125 -27.945312 0.453125 -26.65625 L 0 -26.65625 L 2.046875 -34.203125 L 26.75 -34.203125 L 28.84375 -26.65625 L 28.40625 -26.65625 C 27.90625 -27.945312 27.085938 -29.09375 25.953125 -30.09375 C 24.816406 -31.09375 23.554688 -31.875 22.171875 -32.4375 C 20.785156 -33.007812 19.410156 -33.296875 18.046875 -33.296875 L 16.796875 -33.296875 Z M 16.796875 -7.046875 "/></g></g></g><g fill="#32180b" fill-opacity="1"><g transform="translate(110.858301, 193.216173)"><g><path d="M 7.953125 -7.046875 C 7.953125 -4.410156 8.21875 -2.644531 8.75 -1.75 C 9.28125 -0.851562 10.082031 -0.421875 11.15625 -0.453125 L 11.15625 0 L 0 0 L 0 -0.453125 C 1.0625 -0.421875 1.859375 -0.851562 2.390625 -1.75 C 2.929688 -2.644531 3.203125 -4.410156 3.203125 -7.046875 L 3.203125 -27.09375 C 3.203125 -29.757812 2.929688 -31.550781 2.390625 -32.46875 C 1.859375 -33.382812 1.0625 -33.8125 0 -33.75 L 0 -34.203125 L 18.65625 -34.203125 C 20.019531 -34.203125 21.382812 -34.007812 22.75 -33.625 C 24.113281 -33.238281 25.257812 -32.578125 26.1875 -31.640625 C 27.125 -30.710938 27.59375 -29.429688 27.59375 -27.796875 C 27.59375 -26.160156 27.117188 -24.828125 26.171875 -23.796875 C 25.222656 -22.765625 24.003906 -21.914062 22.515625 -21.25 C 21.035156 -20.582031 19.515625 -19.96875 17.953125 -19.40625 C 19.378906 -19.269531 20.507812 -18.847656 21.34375 -18.140625 C 22.175781 -17.441406 22.78125 -16.546875 23.15625 -15.453125 C 23.382812 -14.753906 23.679688 -13.8125 24.046875 -12.625 C 24.410156 -11.4375 24.8125 -10.191406 25.25 -8.890625 C 25.6875 -7.597656 26.132812 -6.410156 26.59375 -5.328125 C 27.0625 -4.242188 27.515625 -3.453125 27.953125 -2.953125 C 28.316406 -2.546875 28.753906 -2.234375 29.265625 -2.015625 C 29.785156 -1.804688 30.296875 -1.914062 30.796875 -2.34375 L 31.15625 -2.046875 C 30.820312 -1.316406 30.320312 -0.789062 29.65625 -0.46875 C 28.988281 -0.15625 28.285156 0 27.546875 0 C 26.316406 0 25.316406 -0.289062 24.546875 -0.875 C 23.785156 -1.457031 23.171875 -2.195312 22.703125 -3.09375 C 22.097656 -4.195312 21.570312 -5.429688 21.125 -6.796875 C 20.675781 -8.160156 20.265625 -9.523438 19.890625 -10.890625 C 19.523438 -12.265625 19.128906 -13.519531 18.703125 -14.65625 C 18.171875 -16.15625 17.46875 -17.1875 16.59375 -17.75 C 15.726562 -18.3125 14.53125 -18.226562 13 -17.5 C 12.0625 -17.0625 11.117188 -16.457031 10.171875 -15.6875 C 9.222656 -14.925781 8.484375 -14.25 7.953125 -13.65625 Z M 7.953125 -33.296875 L 7.953125 -14.953125 C 8.617188 -15.617188 9.34375 -16.234375 10.125 -16.796875 C 10.90625 -17.367188 11.726562 -17.921875 12.59375 -18.453125 C 13.394531 -18.984375 14.367188 -19.570312 15.515625 -20.21875 C 16.671875 -20.875 17.804688 -21.582031 18.921875 -22.34375 C 20.035156 -23.113281 20.957031 -23.960938 21.6875 -24.890625 C 22.425781 -25.828125 22.796875 -26.863281 22.796875 -28 C 22.828125 -29.5 22.425781 -30.625 21.59375 -31.375 C 20.757812 -32.125 19.726562 -32.628906 18.5 -32.890625 C 17.269531 -33.160156 16.070312 -33.296875 14.90625 -33.296875 Z M 7.953125 -33.296875 "/></g></g></g><g fill="#32180b" fill-opacity="1"><g transform="translate(146.803241, 193.216173)"><g><path d="M 11.15625 -34.203125 L 11.15625 -33.75 C 10.082031 -33.8125 9.28125 -33.382812 8.75 -32.46875 C 8.21875 -31.550781 7.953125 -29.757812 7.953125 -27.09375 L 7.953125 -7.046875 C 7.953125 -4.410156 8.21875 -2.644531 8.75 -1.75 C 9.28125 -0.851562 10.082031 -0.421875 11.15625 -0.453125 L 11.15625 0 L 0 0 L 0 -0.453125 C 1.0625 -0.421875 1.859375 -0.851562 2.390625 -1.75 C 2.929688 -2.644531 3.203125 -4.410156 3.203125 -7.046875 L 3.203125 -27.09375 C 3.203125 -29.757812 2.929688 -31.550781 2.390625 -32.46875 C 1.859375 -33.382812 1.0625 -33.8125 0 -33.75 L 0 -34.203125 Z M 11.15625 -34.203125 "/></g></g></g><g fill="#32180b" fill-opacity="1"><g transform="translate(162.701281, 193.216173)"><g><path d="M 14.09375 0 L 3.09375 -31.40625 C 2.832031 -32.164062 2.46875 -32.753906 2 -33.171875 C 1.53125 -33.585938 0.863281 -33.78125 0 -33.75 L 0 -34.203125 L 10.09375 -34.203125 L 10.09375 -33.75 C 9.257812 -33.78125 8.648438 -33.601562 8.265625 -33.21875 C 7.890625 -32.84375 7.851562 -32.238281 8.15625 -31.40625 L 18.703125 -1.25 L 28.25 -28.453125 C 28.382812 -28.878906 28.457031 -29.285156 28.46875 -29.671875 C 28.488281 -30.054688 28.414062 -30.46875 28.25 -30.90625 C 28.21875 -31.070312 28.164062 -31.242188 28.09375 -31.421875 C 28.03125 -31.609375 27.96875 -31.800781 27.90625 -32 C 27.664062 -32.726562 27.300781 -33.207031 26.8125 -33.4375 C 26.332031 -33.675781 25.710938 -33.78125 24.953125 -33.75 L 24.953125 -34.203125 C 26.148438 -34.203125 27.546875 -34.203125 29.140625 -34.203125 C 30.742188 -34.203125 32.128906 -34.203125 33.296875 -34.203125 L 33.296875 -33.75 C 31.796875 -33.78125 30.78125 -33.046875 30.25 -31.546875 L 19.203125 0 Z M 14.09375 0 "/></g></g></g><g fill="#32180b" fill-opacity="1"><g transform="translate(193.378717, 193.466164)"><g><path d="M 19.203125 -34.203125 L 30.203125 -2.796875 C 30.460938 -2.035156 30.828125 -1.4375 31.296875 -1 C 31.765625 -0.5625 32.445312 -0.363281 33.34375 -0.40625 L 33.34375 0 L 23.25 0 L 23.25 -0.40625 C 24.113281 -0.363281 24.71875 -0.539062 25.0625 -0.9375 C 25.414062 -1.34375 25.460938 -1.960938 25.203125 -2.796875 L 21.796875 -12.453125 C 20.929688 -10.617188 19.78125 -9.472656 18.34375 -9.015625 C 16.914062 -8.566406 15.203125 -8.660156 13.203125 -9.296875 C 12.703125 -9.460938 12.109375 -9.660156 11.421875 -9.890625 C 10.742188 -10.128906 10.046875 -10.289062 9.328125 -10.375 C 8.609375 -10.457031 7.957031 -10.375 7.375 -10.125 C 6.789062 -9.875 6.363281 -9.347656 6.09375 -8.546875 L 5.046875 -5.75 C 4.910156 -5.3125 4.84375 -4.898438 4.84375 -4.515625 C 4.84375 -4.140625 4.910156 -3.734375 5.046875 -3.296875 C 5.117188 -3.128906 5.1875 -2.945312 5.25 -2.75 C 5.3125 -2.550781 5.363281 -2.367188 5.40625 -2.203125 C 5.664062 -1.460938 6.035156 -0.96875 6.515625 -0.71875 C 7.003906 -0.46875 7.648438 -0.363281 8.453125 -0.40625 L 8.453125 0 C 7.210938 0 5.785156 0 4.171875 0 C 2.554688 0 1.164062 0 0 0 L 0 -0.40625 C 0.800781 -0.363281 1.453125 -0.539062 1.953125 -0.9375 C 2.453125 -1.34375 2.816406 -1.894531 3.046875 -2.59375 L 14.15625 -34.203125 Z M 21.5 -13.453125 L 14.65625 -32.90625 L 7.25 -11.953125 C 8.113281 -13.085938 9.175781 -13.757812 10.4375 -13.96875 C 11.707031 -14.1875 13.160156 -14.015625 14.796875 -13.453125 C 15.566406 -13.210938 16.347656 -12.957031 17.140625 -12.6875 C 17.941406 -12.425781 18.71875 -12.320312 19.46875 -12.375 C 20.21875 -12.425781 20.894531 -12.785156 21.5 -13.453125 Z M 21.5 -13.453125 "/></g></g></g><g fill="#32180b" fill-opacity="1"><g transform="translate(231.523315, 193.466164)"><g><path d="M 7.953125 -7.046875 C 7.953125 -4.410156 8.21875 -2.644531 8.75 -1.75 C 9.28125 -0.851562 10.082031 -0.421875 11.15625 -0.453125 L 11.15625 0 L 0 0 L 0 -0.453125 C 1.0625 -0.421875 1.859375 -0.851562 2.390625 -1.75 C 2.929688 -2.644531 3.203125 -4.410156 3.203125 -7.046875 L 3.203125 -27.09375 C 3.203125 -29.757812 2.929688 -31.550781 2.390625 -32.46875 C 1.859375 -33.382812 1.0625 -33.8125 0 -33.75 L 0 -34.203125 L 18.65625 -34.203125 C 20.019531 -34.203125 21.382812 -34.007812 22.75 -33.625 C 24.113281 -33.238281 25.257812 -32.578125 26.1875 -31.640625 C 27.125 -30.710938 27.59375 -29.429688 27.59375 -27.796875 C 27.59375 -26.160156 27.117188 -24.828125 26.171875 -23.796875 C 25.222656 -22.765625 24.003906 -21.914062 22.515625 -21.25 C 21.035156 -20.582031 19.515625 -19.96875 17.953125 -19.40625 C 19.378906 -19.269531 20.507812 -18.847656 21.34375 -18.140625 C 22.175781 -17.441406 22.78125 -16.546875 23.15625 -15.453125 C 23.382812 -14.753906 23.679688 -13.8125 24.046875 -12.625 C 24.410156 -11.4375 24.8125 -10.191406 25.25 -8.890625 C 25.6875 -7.597656 26.132812 -6.410156 26.59375 -5.328125 C 27.0625 -4.242188 27.515625 -3.453125 27.953125 -2.953125 C 28.316406 -2.546875 28.753906 -2.234375 29.265625 -2.015625 C 29.785156 -1.804688 30.296875 -1.914062 30.796875 -2.34375 L 31.15625 -2.046875 C 30.820312 -1.316406 30.320312 -0.789062 29.65625 -0.46875 C 28.988281 -0.15625 28.285156 0 27.546875 0 C 26.316406 0 25.316406 -0.289062 24.546875 -0.875 C 23.785156 -1.457031 23.171875 -2.195312 22.703125 -3.09375 C 22.097656 -4.195312 21.570312 -5.429688 21.125 -6.796875 C 20.675781 -8.160156 20.265625 -9.523438 19.890625 -10.890625 C 19.523438 -12.265625 19.128906 -13.519531 18.703125 -14.65625 C 18.171875 -16.15625 17.46875 -17.1875 16.59375 -17.75 C 15.726562 -18.3125 14.53125 -18.226562 13 -17.5 C 12.0625 -17.0625 11.117188 -16.457031 10.171875 -15.6875 C 9.222656 -14.925781 8.484375 -14.25 7.953125 -13.65625 Z M 7.953125 -33.296875 L 7.953125 -14.953125 C 8.617188 -15.617188 9.34375 -16.234375 10.125 -16.796875 C 10.90625 -17.367188 11.726562 -17.921875 12.59375 -18.453125 C 13.394531 -18.984375 14.367188 -19.570312 15.515625 -20.21875 C 16.671875 -20.875 17.804688 -21.582031 18.921875 -22.34375 C 20.035156 -23.113281 20.957031 -23.960938 21.6875 -24.890625 C 22.425781 -25.828125 22.796875 -26.863281 22.796875 -28 C 22.828125 -29.5 22.425781 -30.625 21.59375 -31.375 C 20.757812 -32.125 19.726562 -32.628906 18.5 -32.890625 C 17.269531 -33.160156 16.070312 -33.296875 14.90625 -33.296875 Z M 7.953125 -33.296875 "/></g></g></g><g fill="#32180b" fill-opacity="1"><g transform="translate(266.218377, 193.466164)"><g><path d="M 19.203125 -34.203125 L 30.203125 -2.796875 C 30.460938 -2.035156 30.828125 -1.4375 31.296875 -1 C 31.765625 -0.5625 32.445312 -0.363281 33.34375 -0.40625 L 33.34375 0 L 23.25 0 L 23.25 -0.40625 C 24.113281 -0.363281 24.71875 -0.539062 25.0625 -0.9375 C 25.414062 -1.34375 25.460938 -1.960938 25.203125 -2.796875 L 21.796875 -12.453125 C 20.929688 -10.617188 19.78125 -9.472656 18.34375 -9.015625 C 16.914062 -8.566406 15.203125 -8.660156 13.203125 -9.296875 C 12.703125 -9.460938 12.109375 -9.660156 11.421875 -9.890625 C 10.742188 -10.128906 10.046875 -10.289062 9.328125 -10.375 C 8.609375 -10.457031 7.957031 -10.375 7.375 -10.125 C 6.789062 -9.875 6.363281 -9.347656 6.09375 -8.546875 L 5.046875 -5.75 C 4.910156 -5.3125 4.84375 -4.898438 4.84375 -4.515625 C 4.84375 -4.140625 4.910156 -3.734375 5.046875 -3.296875 C 5.117188 -3.128906 5.1875 -2.945312 5.25 -2.75 C 5.3125 -2.550781 5.363281 -2.367188 5.40625 -2.203125 C 5.664062 -1.460938 6.035156 -0.96875 6.515625 -0.71875 C 7.003906 -0.46875 7.648438 -0.363281 8.453125 -0.40625 L 8.453125 0 C 7.210938 0 5.785156 0 4.171875 0 C 2.554688 0 1.164062 0 0 0 L 0 -0.40625 C 0.800781 -0.363281 1.453125 -0.539062 1.953125 -0.9375 C 2.453125 -1.34375 2.816406 -1.894531 3.046875 -2.59375 L 14.15625 -34.203125 Z M 21.5 -13.453125 L 14.65625 -32.90625 L 7.25 -11.953125 C 8.113281 -13.085938 9.175781 -13.757812 10.4375 -13.96875 C 11.707031 -14.1875 13.160156 -14.015625 14.796875 -13.453125 C 15.566406 -13.210938 16.347656 -12.957031 17.140625 -12.6875 C 17.941406 -12.425781 18.71875 -12.320312 19.46875 -12.375 C 20.21875 -12.425781 20.894531 -12.785156 21.5 -13.453125 Z M 21.5 -13.453125 "/></g></g></g></svg>